<svg width="36" height="35" viewBox="0 0 36 35" fill="none" xmlns="http://www.w3.org/2000/svg">
<path d="M8.52149 21.2723L5.96819 32.3286C5.88912 32.6634 5.91286 33.0142 6.0363 33.3353C6.15973 33.6564 6.37713 33.9328 6.6601 34.1284C6.94306 34.324 7.27845 34.4298 7.62244 34.4318C7.96643 34.4339 8.30305 34.3321 8.58832 34.1399L17.919 27.9194L27.2497 34.1399C27.5416 34.3337 27.8858 34.4335 28.2361 34.4258C28.5864 34.4181 28.9259 34.3033 29.209 34.0969C29.4922 33.8905 29.7053 33.6024 29.8197 33.2712C29.9342 32.9401 29.9445 32.5818 29.8493 32.2446L26.715 21.2774L34.488 14.2824C34.737 14.0582 34.9148 13.766 34.9994 13.4419C35.0841 13.1178 35.0718 12.7759 34.9643 12.4587C34.8567 12.1414 34.6585 11.8626 34.3941 11.6568C34.1298 11.451 33.811 11.3272 33.477 11.3007L23.7076 10.5227L19.4801 1.16461C19.3453 0.863279 19.1262 0.6074 18.8492 0.427854C18.5722 0.248309 18.2491 0.152771 17.919 0.152771C17.5889 0.152771 17.2658 0.248309 16.9888 0.427854C16.7118 0.6074 16.4927 0.863279 16.3579 1.16461L12.1304 10.5227L2.36101 11.299C2.03277 11.325 1.71898 11.445 1.45717 11.6447C1.19535 11.8443 0.996608 12.1152 0.884709 12.4249C0.772809 12.7346 0.752493 13.0699 0.826192 13.3908C0.89989 13.7117 1.06448 14.0046 1.30027 14.2344L8.52149 21.2723ZM13.4105 13.8591C13.7163 13.835 14.0101 13.7291 14.2609 13.5524C14.5118 13.3757 14.7105 13.1348 14.8362 12.855L17.919 6.03302L21.0018 12.855C21.1275 13.1348 21.3262 13.3757 21.5771 13.5524C21.8279 13.7291 22.1217 13.835 22.4276 13.8591L29.2341 14.3989L23.6288 19.4438C23.1421 19.8825 22.9485 20.5577 23.1267 21.1883L25.2739 28.7026L18.8718 24.4339C18.5908 24.2453 18.26 24.1446 17.9216 24.1446C17.5832 24.1446 17.2524 24.2453 16.9714 24.4339L10.2814 28.8945L12.0807 21.1043C12.1467 20.8178 12.1378 20.5192 12.055 20.2371C11.9721 19.955 11.8181 19.6989 11.6077 19.4935L6.40174 14.4178L13.4105 13.8591Z" fill="#F3CD03"/>
</svg>
