<svg width="36" height="35" viewBox="0 0 36 35" fill="none" xmlns="http://www.w3.org/2000/svg">
<path d="M35.024 12.4572C34.9163 12.1399 34.718 11.8611 34.4537 11.6553C34.1894 11.4494 33.8705 11.3255 33.5366 11.2987L23.7672 10.5225L19.5397 1.16437C19.4051 0.862964 19.1861 0.606964 18.9092 0.427266C18.6322 0.247569 18.3092 0.151854 17.9791 0.151673C17.649 0.151491 17.3259 0.246852 17.0488 0.426245C16.7717 0.605639 16.5524 0.861398 16.4175 1.16266L12.19 10.5225L2.42058 11.2987C2.09234 11.3247 1.77855 11.4448 1.51674 11.6444C1.25492 11.8441 1.05618 12.115 0.944279 12.4246C0.83238 12.7343 0.812064 13.0697 0.885762 13.3906C0.95946 13.7115 1.12405 14.0044 1.35985 14.2342L8.57935 21.272L6.02604 32.3284C5.94852 32.663 5.97336 33.0133 6.09737 33.3336C6.22137 33.654 6.4388 33.9297 6.72144 34.125C7.00408 34.3202 7.33889 34.426 7.68241 34.4287C8.02593 34.4313 8.36231 34.3306 8.64789 34.1397L17.9786 27.9192L27.3093 34.1397C27.6012 34.3335 27.9454 34.4332 28.2957 34.4255C28.646 34.4179 28.9855 34.3031 29.2686 34.0967C29.5517 33.8903 29.7648 33.6021 29.8793 33.271C29.9938 32.9398 30.0041 32.5816 29.9088 32.2444L26.7746 21.2772L34.5476 14.2822C35.0566 13.8229 35.2433 13.1066 35.024 12.4572Z" fill="#F3CD03"/>
</svg>
